<svg xmlns="http://www.w3.org/2000/svg" viewBox="0 0 384 384">
  <path fill="#4a90c4" d="M216.75.39c4.2,1.78,7.59,4.22,8.81,9.12l10.75,43.44c8.6,2.89,15.51,5.7,23.78,9.99l34.59-20.52c4.49-2.67,10.16-1.69,13.8,1.94l31.08,30.98c4.26,4.25,4.8,9.92,1.74,15.02l-20.02,33.37c4.06,8.17,7.14,15.27,10.05,24.04l43.52,10.76c4.94,1.22,7.46,4.6,9.15,8.88v49.18c-1.74,4.43-4.54,8.06-9.76,9.03l-42.75,10.55c-2.93,8.15-5.89,15.42-9.94,23.5l20.09,33.57c2.62,4.38,2.14,10.11-1.55,13.79l-31.71,31.69c-3.41,3.4-9.19,4.52-13.46,1.98l-33.79-20.09c-8.37,4.26-16.18,7.51-24.88,10.57l-10.85,43.92c-1.55,4.83-5.58,8.5-10.92,8.49l-45.62-.06c-5.29,0-9.07-4.34-10.37-8.99l-10.7-43.34c-8.5-3.01-16.12-6.12-24.33-10.27l-32.99,19.61c-4.47,2.66-10.26,1.68-13.87-1.92l-31.46-31.41c-3.81-3.81-4.32-9.6-1.58-14.17l19.37-32.36c-4.07-8.15-7.29-15.9-10.35-24.5l-43.4-10.71c-4.94-1.08-7.35-4.65-9.15-8.77v-49.4c1.78-4.2,4.24-7.57,9.15-8.78l43.33-10.7c2.75-7.55,5.51-14.32,8.91-21.67l-21.51-35.94c-2.78-4.64-2.56-10.45,1.39-14.39l31.78-31.71c3.77-3.76,9.21-3.97,13.74-1.64l35.45,21.2c8.49-4.28,16.1-7.68,25.46-10.7l10.77-43.47c1.22-4.91,4.56-7.36,8.78-9.14h49.5ZM301.51,192c0-60.36-49.03-109.29-109.51-109.29s-109.51,48.93-109.51,109.29,49.03,109.29,109.51,109.29,109.51-48.93,109.51-109.29Z"/>
  <path fill="#66c0f4" d="M218.99,110.58c2.37.97,3.84,2.63,3.84,5.45v82.11c0,2.2,1.67,3.91,3.8,3.92l26.33.02c2.21,0,4.01,1.37,4.7,3.1.77,1.95.4,3.99-1.16,5.55l-60.89,60.88c-1.96,1.96-5.04,2.17-7.05.16l-61.21-61.2c-1.56-1.56-1.71-3.78-.9-5.62.73-1.64,2.48-2.87,4.61-2.87l26.33-.02c2.18,0,3.93-1.58,3.93-3.9v-81.82c0-2.89,1.25-4.62,3.7-5.76h53.98Z"/>
</svg>
